# xmcd CD database file
#
# Track frame offsets:
#	150
#	18675
#	40200
#	55349
#
# Disc length: 1027 seconds
#
# Revision: 0
# Processed by: cddbd v1.5PL3 Copyright (c) Steve Scherf et al.
# Submitted via: CDex 1.50beta9
#
DISCID=30040104
DTITLE=STB-lab - CM-64
DYEAR=1900
DGENRE=Instrumental
TTITLE0=しまぱにゅ注意報!! 　　 
TTITLE1=時を止めた少女
TTITLE2=REPIV=CIV
TTITLE3=遅すぎた真夏
EXTD=
EXTT0=
EXTT1=
EXTT2=
EXTT3=
PLAYORDER=
